<mxfile host="app.diagrams.net" modified="2023-10-04T18:22:13.980Z" agent="Mozilla/5.0 (Windows NT 10.0; Win64; x64) AppleWebKit/537.36 (KHTML, like Gecko) Chrome/117.0.0.0 Safari/537.36" etag="iT49FwERJ1vXtCfcEEiB" version="22.0.2" type="github">
  <diagram name="Classes" id="5YO92Rt61V_yBTOGh588">
    <mxGraphModel dx="1194" dy="760" grid="1" gridSize="10" guides="1" tooltips="1" connect="1" arrows="1" fold="1" page="1" pageScale="1" pageWidth="827" pageHeight="1169" math="0" shadow="0">
      <root>
        <mxCell id="0" />
        <mxCell id="1" parent="0" />
      </root>
    </mxGraphModel>
  </diagram>
</mxfile>
